<svg width="400" height="50" viewBox="0 0 400 50" fill="none" xmlns="http://www.w3.org/2000/svg">
<path fill-rule="evenodd" clip-rule="evenodd" d="M44.9 14.8C46.3 14.8 47.9 14.8 49.2 15.6C50.3 16.3 51.2 17.4 51.2 19.3C51.2 22.9 48 23.3 48 23.3C48 23.3 52.3 23.5 52.3 27.8C52.3 29.9 51.3 31.2 50 32C48.4 33 46.5 33 45 33H39V14.8H44.9ZM44.5 22.4C45.2 22.4 46 22.4 46.7 22C47.4 21.6 47.9 20.9 47.9 19.8C47.9 18.7 47.4 18 46.7 17.6C46 17.2 45.2 17.2 44.5 17.2H42.3V22.4H44.5ZM44.8 30.8C45.6 30.8 46.6 30.8 47.5 30.3C48.4 29.8 48.8 29 48.8 27.9C48.8 26.8 48.5 25.9 47.6 25.4C46.7 24.9 45.7 24.9 44.9 24.9H42.3V30.8H44.8Z" fill="white"/>
<path d="M62.2 22.6C62.2 22.6 61.4999 22.5 60.7999 22.5C57.8999 22.5 57.9 24.6 57.9 25.7V33.2H54.7V19.7H57.0999L57.7 22.3C58.2 20.1 59.7999 19.5 61.7999 19.5H62.0999V22.6H62.2Z" fill="white"/>
<path d="M67.7 15.9C67.7 17 66.9 17.8 65.8 17.8C64.7 17.8 63.9 17 63.9 15.9C63.9 14.8 64.7 14 65.8 14C66.9 14 67.7 14.9 67.7 15.9ZM67.3 19.7V23.7V33.1H64.1V19.7H67.3Z" fill="white"/>
<path fill-rule="evenodd" clip-rule="evenodd" d="M75.9999 28.1C75.2999 28.1 74.6999 28.1 74.1999 27.9C73.8999 28.1 73.4999 28.4 73.4999 29C73.4999 30 74.5999 30 75.2999 30H77.4999C79.1999 30 82.7999 30 82.7999 33.6C82.7999 36.5 80.4999 38.1 75.5999 38.1C71.2999 38.1 69.3999 36.9 69.3999 34.9C69.3999 32.5 71.8999 32.2 71.9999 32.2C71.8999 32.2 70.2999 31.6 70.2999 29.9C70.2999 28.2 71.9999 27.6 72.7999 27.4C71.2999 26.7 70.4999 25.4 70.4999 23.7C70.4999 21.1 72.5999 19.4 75.9999 19.4C77.6999 19.4 78.9999 19.8 79.9999 20.6C80.5999 18.9 81.9999 18.9 82.7999 18.9H83.0999V21.5C83.0999 21.5 82.5999 21.4 81.9999 21.4C81.3999 21.4 81.0999 21.5 80.8999 21.6C81.2999 22.2 81.4999 22.9 81.4999 23.7C81.4999 26.4 79.2999 28.1 75.9999 28.1ZM73.1999 32.6C73.1999 32.6 72.2999 33.1 72.2999 34.2C72.2999 35.4 73.2999 35.9 75.6999 35.9C78.2999 35.9 79.5999 35.3 79.5999 34C79.5999 32.6 77.8999 32.6 77.1999 32.6H73.1999ZM78.1999 23.7C78.1999 22.3 77.3999 21.6 75.9999 21.6C74.5999 21.6 73.7999 22.3 73.7999 23.7C73.7999 25.1 74.5999 25.8 75.9999 25.8C77.3999 25.8 78.1999 25.1 78.1999 23.7Z" fill="white"/>
<path d="M88.3 14.1V21.8C88.7 20.4 89.8 19.4 92.1 19.4C94.2 19.4 95.4 20.2 96 21.2C96.8 22.3 96.8 23.6 96.8 25.2V33.1H93.6V25.2C93.6 24.4 93.6 23.6 93.2 23C92.8 22.4 92.1 22 91.1 22C88.7 22 88.4 23.8 88.4 24.9V33.1H85.2V14.1H88.3Z" fill="white"/>
<path fill-rule="evenodd" clip-rule="evenodd" d="M100.3 20.1C100.3 20.1 102 19.5 104.6 19.5C106.6 19.5 108.4 19.8 109.3 21.2C110 22.2 110 23.6 110 24.8V29.4C110 30 110 31 111.1 31C111.5 31 111.8 30.9 111.8 30.9V33.1C111.8 33.1 111.1 33.3 110.1 33.3C108.4 33.3 107.3 32.7 107.1 30.9C106.6 32.5 105.1 33.3 103.2 33.3C100.6 33.3 98.8999 31.7 98.8999 29.3C98.8999 26.4 101.3 25 105.5 25C106.3 25 106.8 25 106.8 25C106.8 23.9 106.8 23.3 106.4 22.8C106 22.2 105.4 21.9 104 21.9C102.1 21.9 100.4 22.6 100.4 22.6H100.2V20.1H100.3ZM104.2 30.9C105.1 30.9 106 30.5 106.5 29.6C106.9 28.8 106.9 27.8 106.9 27.3V27H106.2C104.8 27 102.4 27 102.4 29.1C102.3 30.2 103 30.9 104.2 30.9Z" fill="white"/>
<path d="M116.4 19.7L117 22C117.4 20.5 118.5 19.4 120.9 19.4C123.2 19.4 124.4 20.4 125 22.1C125.6 20.3 126.9 19.4 128.9 19.4C131 19.4 132.1 20.3 132.7 21.2C133.4 22.3 133.4 23.6 133.4 25.2V33.1H130.2V25.2C130.2 24.4 130.2 23.6 129.8 23C129.5 22.5 128.9 22 127.8 22C125.6 22 125.3 23.8 125.3 24.9V33.1H122.1V25.2C122.1 24.4 122.1 23.6 121.7 23C121.4 22.5 120.8 22 119.7 22C117.5 22 117.2 23.8 117.2 24.9V33.1H114V19.7H116.4Z" fill="white"/>
<path fill-rule="evenodd" clip-rule="evenodd" d="M143 20.1C143 20.1 144.7 19.5 147.3 19.5C149.3 19.5 151.1 19.8 152 21.2C152.7 22.2 152.7 23.6 152.7 24.8V29.4C152.7 30 152.7 31 153.8 31C154.2 31 154.5 30.9 154.5 30.9V33.1C154.5 33.1 153.8 33.3 152.8 33.3C151.1 33.3 150 32.7 149.8 30.9C149.3 32.5 147.8 33.3 145.9 33.3C143.3 33.3 141.6 31.7 141.6 29.3C141.6 26.4 144 25 148.2 25C149 25 149.5 25 149.5 25C149.5 23.9 149.5 23.3 149.1 22.8C148.7 22.2 148.1 21.9 146.7 21.9C144.8 21.9 143.1 22.6 143.1 22.6H142.9V20.1H143ZM146.8 30.9C147.7 30.9 148.6 30.5 149.1 29.6C149.5 28.8 149.5 27.8 149.5 27.3V27H148.8C147.4 27 145 27 145 29.1C145 30.2 145.6 30.9 146.8 30.9Z" fill="white"/>
<path d="M159.1 19.7L159.7 22C160.1 20.4 161.4 19.4 163.7 19.4C165.8 19.4 166.9 20.2 167.6 21.2C168.4 22.3 168.4 23.6 168.4 25.2V33.1H165.2V25.2C165.2 24.4 165.2 23.6 164.8 23C164.4 22.4 163.7 22 162.7 22C160.3 22 160 23.8 160 24.9V33.1H156.8V19.7H159.1Z" fill="white"/>
<path fill-rule="evenodd" clip-rule="evenodd" d="M183.5 14.1V33.1H181L180.4 30.9C180 32.4 178.6 33.4 176.4 33.4C172.7 33.4 170.7 30.6 170.7 26.5C170.7 22.4 172.7 19.4 176.6 19.4C178.5 19.4 179.8 20.1 180.3 21.7V14.1H183.5ZM174.1 26.4C174.1 29.1 175 30.9 177.2 30.9C179.4 30.9 180.3 29 180.3 26.3C180.3 23.6 179.5 21.9 177.3 21.9C175.1 21.9 174.1 23.8 174.1 26.4Z" fill="white"/>
<path d="M195.1 14.8L198.7 29L202.4 15.2H205.7L209.4 29L213 14.8H215.8L210.8 33.1H207.5L203.8 19.2L200 33.1H196.7L191.7 14.8H195.1Z" fill="white"/>
<path fill-rule="evenodd" clip-rule="evenodd" d="M222.4 33.5C218.3 33.5 215.9 31.1 215.9 26.5C215.9 21.9 218.3 19.4 222.5 19.4C226.6 19.4 229 21.8 229 26.4C229 31 226.6 33.5 222.4 33.5ZM225.6 26.4C225.6 23.4 224.6 21.7 222.5 21.7C220.3 21.7 219.4 23.6 219.4 26.4C219.4 29.4 220.4 31.1 222.5 31.1C224.7 31.2 225.6 29.3 225.6 26.4Z" fill="white"/>
<path d="M234.1 19.7L234.7 22C235.1 20.5 236.2 19.4 238.6 19.4C240.9 19.4 242.1 20.4 242.7 22.1C243.3 20.3 244.6 19.4 246.6 19.4C248.7 19.4 249.8 20.3 250.4 21.2C251.1 22.3 251.1 23.6 251.1 25.2V33.1H247.9V25.2C247.9 24.4 247.9 23.6 247.5 23C247.2 22.5 246.6 22 245.5 22C243.3 22 243 23.8 243 24.9V33.1H239.8V25.2C239.8 24.4 239.8 23.6 239.4 23C239.1 22.5 238.5 22 237.4 22C235.2 22 234.9 23.8 234.9 24.9V33.1H231.7V19.7H234.1Z" fill="white"/>
<path fill-rule="evenodd" clip-rule="evenodd" d="M264.6 32.7C264.6 32.7 262.8 33.3 260.4 33.3C257.8 33.3 256.3 32.6 255.3 31.6C254.1 30.4 253.5 28.7 253.5 26.5C253.5 22.1 255.7 19.4 259.7 19.4C261.9 19.4 263.5 20.2 264.5 21.7C265.4 23.2 265.4 25.2 265.4 27.3H256.8C256.8 29.6 258.1 30.9 260.6 30.9C262.5 30.9 264.4 30.2 264.4 30.2H264.6V32.7ZM262.1 25.1C262.1 22.9 261.4 21.6 259.6 21.6C257.7 21.6 257 22.9 256.8 25.1H262.1Z" fill="white"/>
<path d="M270.6 19.7L271.2 22C271.6 20.4 272.9 19.4 275.2 19.4C277.3 19.4 278.4 20.2 279.1 21.2C279.9 22.3 279.9 23.6 279.9 25.2V33.1H276.7V25.2C276.7 24.4 276.7 23.6 276.3 23C275.9 22.4 275.2 22 274.2 22C271.8 22 271.5 23.8 271.5 24.9V33.1H268.3V19.7H270.6Z" fill="white"/>
<path d="M282.3 20.7L283.3 14.2H286.3L284.5 20.7H282.3Z" fill="white"/>
<path d="M295.9 22.6H295.7C295.7 22.6 294 21.9 292.5 21.9C291.1 21.9 290.5 22.4 290.5 23.1C290.5 25.2 296.5 24.6 296.5 29.2C296.5 32 294.2 33.3 291 33.3C288.7 33.3 287.2 32.7 287.2 32.7V30.1H287.4C287.4 30.1 289.4 30.9 291.1 30.9C292.6 30.9 293.2 30.3 293.2 29.5C293.2 27.1 287.2 27.8 287.2 23.4C287.2 21 289.1 19.4 292.5 19.4C294.4 19.4 295.8 19.9 295.8 19.9V22.6H295.9Z" fill="white"/>
<path d="M308.8 14.8V22.3H316.9V14.8H320.2V33.1H316.9V24.8H308.8V33.1H305.5V14.8H308.8Z" fill="white"/>
<path fill-rule="evenodd" clip-rule="evenodd" d="M329.5 33.5C325.4 33.5 323 31.1 323 26.5C323 21.9 325.4 19.4 329.6 19.4C333.7 19.4 336.1 21.8 336.1 26.4C336.1 31 333.7 33.5 329.5 33.5ZM332.7 26.4C332.7 23.4 331.7 21.7 329.6 21.7C327.4 21.7 326.5 23.6 326.5 26.4C326.5 29.4 327.5 31.1 329.6 31.1C331.8 31.2 332.7 29.3 332.7 26.4Z" fill="white"/>
<path d="M346.6 22.6H346.4C346.4 22.6 344.7 21.9 343.2 21.9C341.8 21.9 341.2 22.4 341.2 23.1C341.2 25.2 347.2 24.6 347.2 29.2C347.2 32 344.9 33.3 341.7 33.3C339.4 33.3 337.9 32.7 337.9 32.7V30.1H338.1C338.1 30.1 340.1 30.9 341.8 30.9C343.3 30.9 343.9 30.3 343.9 29.5C343.9 27.1 337.9 27.8 337.9 23.4C337.9 21 339.8 19.4 343.2 19.4C345.1 19.4 346.5 19.9 346.5 19.9V22.6H346.6Z" fill="white"/>
<path fill-rule="evenodd" clip-rule="evenodd" d="M349.9 37.9V19.7H352.4L353 21.9C353.4 20.4 354.8 19.4 357 19.4C360.7 19.4 362.7 22.2 362.7 26.3C362.7 30.4 360.7 33.4 356.8 33.4C354.9 33.4 353.6 32.7 353.1 31.1V37.9H349.9ZM359.3 26.4C359.3 23.7 358.4 21.9 356.2 21.9C353.9 21.9 353.1 23.8 353.1 26.5C353.1 29.2 354 31 356.2 31C358.4 31 359.3 29.1 359.3 26.4Z" fill="white"/>
<path d="M368.8 15.9C368.8 17 368 17.8 366.9 17.8C365.8 17.8 365 17 365 15.9C365 14.8 365.8 14 366.9 14C368.1 14 368.8 14.9 368.8 15.9ZM368.5 19.7V21.9V33.1H365.3V19.7H368.5Z" fill="white"/>
<path d="M379.8 33C379.8 33 378.8 33.3 377.4 33.3C375.5 33.3 374.2 32.8 373.6 31.8C373 30.9 373 29.8 373 28.3V22.2H370.5V19.9H372.9V16.4L376.1 15.5V19.9H379.8V22.2H376.1V28.2C376.1 29.1 376.1 29.7 376.4 30.2C376.7 30.7 377.2 30.8 377.8 30.8C378.7 30.8 379.6 30.5 379.6 30.5H379.8V33Z" fill="white"/>
<path fill-rule="evenodd" clip-rule="evenodd" d="M382.7 20.1C382.7 20.1 384.4 19.5 387 19.5C389 19.5 390.8 19.8 391.7 21.2C392.4 22.2 392.4 23.6 392.4 24.8V29.4C392.4 30 392.4 31 393.5 31C393.9 31 394.2 30.9 394.2 30.9V33.1C394.2 33.1 393.5 33.3 392.5 33.3C390.8 33.3 389.7 32.7 389.5 30.9C389 32.5 387.5 33.3 385.6 33.3C383 33.3 381.3 31.7 381.3 29.3C381.3 26.4 383.7 25 387.9 25C388.7 25 389.2 25 389.2 25C389.2 23.9 389.2 23.3 388.8 22.8C388.4 22.2 387.8 21.9 386.4 21.9C384.5 21.9 382.8 22.6 382.8 22.6H382.6V20.1H382.7ZM386.6 30.9C387.5 30.9 388.4 30.5 388.9 29.6C389.3 28.8 389.3 27.8 389.3 27.3V27H388.6C387.2 27 384.8 27 384.8 29.1C384.7 30.2 385.4 30.9 386.6 30.9Z" fill="white"/>
<path d="M399.5 14.1V33.1H396.3V19.5V14.1H399.5Z" fill="white"/>
<path d="M3.8 20.1H0V26.6V32.5H3.8V20.1Z" fill="#009CA6"/>
<path d="M8.19995 20.1V26.6V32.5H12.1V20.1H8.19995Z" fill="#009CA6"/>
<path d="M16.5 20.1V26.6V32.5H20.3V20.1H16.5Z" fill="#009CA6"/>
<path d="M0 17.7H14.3H28.6V14.2H0V17.7Z" fill="#009CA6"/>
<path d="M14.3 4.70001L0 9.40001V13.1L14.3 8.30001L28.6 13.1V9.40001L14.3 4.70001Z" fill="#009CA6"/>
<path d="M28.6 32.2C28.5 32.4 27.1 34.8 18 34.8H10.6C1.2 34.9 0.2 36.1 0 36.2V39.8C0.2 39.7 1.2 38.5 10.6 38.4H18C27.1 38.4 28.5 36 28.6 35.8V32.2Z" fill="#009CA6"/>
<path d="M28.6 38.1C28.5 38.3 27.1 40.7 18 40.7H10.6C1.2 40.8 0.2 42 0 42.1V45.7C0.2 45.6 1.2 44.4 10.6 44.3H18C27.1 44.3 28.5 41.9 28.6 41.7V38.1Z" fill="#009CA6"/>
<path d="M24.7 20.1V31.9C27.8 31.2 28.5 30.1 28.5 29.9V20.1H24.7Z" fill="#009CA6"/>
</svg>
