<svg width="29" height="42" viewBox="0 0 29 42" fill="none" xmlns="http://www.w3.org/2000/svg">
<path d="M3.8 16.1H0V22.6V28.5H3.8V16.1Z" fill="#009CA6"/>
<path d="M8.2 16.1V22.6V28.5H12.1V16.1H8.2Z" fill="#009CA6"/>
<path d="M16.5 16.1V22.6V28.5H20.3V16.1H16.5Z" fill="#009CA6"/>
<path d="M0 13.7H14.3H28.6V10.2H0V13.7Z" fill="#009CA6"/>
<path d="M14.3 0.700001L0 5.4V9.1L14.3 4.3L28.6 9.1V5.4L14.3 0.700001Z" fill="#009CA6"/>
<path d="M28.6 28.2C28.5 28.4 27.1 30.8 18 30.8H10.6C1.2 30.9 0.2 32.1 0 32.2V35.8C0.2 35.7 1.2 34.5 10.6 34.4H18C27.1 34.4 28.5 32 28.6 31.8V28.2Z" fill="#009CA6"/>
<path d="M28.6 34.1C28.5 34.3 27.1 36.7 18 36.7H10.6C1.2 36.8 0.2 38 0 38.1V41.7C0.2 41.6 1.2 40.4 10.6 40.3H18C27.1 40.3 28.5 37.9 28.6 37.7V34.1Z" fill="#009CA6"/>
<path d="M24.7 16.1V27.9C27.8 27.2 28.5 26.1 28.5 25.9V16.1H24.7Z" fill="#009CA6"/>
</svg>
