<svg version="1.2" xmlns="http://www.w3.org/2000/svg" viewBox="0 0 400 50" width="400" height="50">
	<title>bwh-logo-semi-naked-svg</title>
	<style>
		.s0 { fill: #003a96 } 
		.s1 { fill: #009ca6 } 
	</style>
	<path id="Layer" fill-rule="evenodd" class="s0" d="m44.9 14.8c1.4 0 3 0 4.3 0.8 1.1 0.7 2 1.8 2 3.7 0 3.6-3.2 4-3.2 4 0 0 4.3 0.2 4.3 4.5 0 2.1-1 3.4-2.3 4.2-1.6 1-3.5 1-5 1h-6v-18.2zm-0.4 7.6c0.7 0 1.5 0 2.2-0.4 0.7-0.4 1.2-1.1 1.2-2.2 0-1.1-0.5-1.8-1.2-2.2-0.7-0.4-1.5-0.4-2.2-0.4h-2.2v5.2zm0.3 8.4c0.8 0 1.8 0 2.7-0.5 0.9-0.5 1.3-1.3 1.3-2.4 0-1.1-0.3-2-1.2-2.5-0.9-0.5-1.9-0.5-2.7-0.5h-2.6v5.9z"/>
	<path id="Layer" class="s0" d="m62.2 22.6c0 0-0.7-0.1-1.4-0.1-2.9 0-2.9 2.1-2.9 3.2v7.5h-3.2v-13.5h2.4l0.6 2.6c0.5-2.2 2.1-2.8 4.1-2.8h0.3v3.1z"/>
	<path id="Layer" class="s0" d="m67.7 15.9c0 1.1-0.8 1.9-1.9 1.9-1.1 0-1.9-0.8-1.9-1.9 0-1.1 0.8-1.9 1.9-1.9 1.1 0 1.9 0.9 1.9 1.9zm-0.4 3.8v4 9.4h-3.2v-13.4z"/>
	<path id="Layer" fill-rule="evenodd" class="s0" d="m76 28.1c-0.7 0-1.3 0-1.8-0.2-0.3 0.2-0.7 0.5-0.7 1.1 0 1 1.1 1 1.8 1h2.2c1.7 0 5.3 0 5.3 3.6 0 2.9-2.3 4.5-7.2 4.5-4.3 0-6.2-1.2-6.2-3.2 0-2.4 2.5-2.7 2.6-2.7-0.1 0-1.7-0.6-1.7-2.3 0-1.7 1.7-2.3 2.5-2.5-1.5-0.7-2.3-2-2.3-3.7 0-2.6 2.1-4.3 5.5-4.3 1.7 0 3 0.4 4 1.2 0.6-1.7 2-1.7 2.8-1.7h0.3v2.6c0 0-0.5-0.1-1.1-0.1-0.6 0-0.9 0.1-1.1 0.2q0.6 0.9 0.6 2.1c0 2.7-2.2 4.4-5.5 4.4zm-2.8 4.5c0 0-0.9 0.5-0.9 1.6 0 1.2 1 1.7 3.4 1.7 2.6 0 3.9-0.6 3.9-1.9 0-1.4-1.7-1.4-2.4-1.4zm5-8.9c0-1.4-0.8-2.1-2.2-2.1-1.4 0-2.2 0.7-2.2 2.1 0 1.4 0.8 2.1 2.2 2.1 1.4 0 2.2-0.7 2.2-2.1z"/>
	<path id="Layer" class="s0" d="m88.3 14.1v7.7c0.4-1.4 1.5-2.4 3.8-2.4 2.1 0 3.3 0.8 3.9 1.8 0.8 1.1 0.8 2.4 0.8 4v7.9h-3.2v-7.9c0-0.8 0-1.6-0.4-2.2-0.4-0.6-1.1-1-2.1-1-2.4 0-2.7 1.8-2.7 2.9v8.2h-3.2v-19z"/>
	<path id="Layer" fill-rule="evenodd" class="s0" d="m100.3 20.1c0 0 1.7-0.6 4.3-0.6 2 0 3.8 0.3 4.7 1.7 0.7 1 0.7 2.4 0.7 3.6v4.6c0 0.6 0 1.6 1.1 1.6 0.4 0 0.7-0.1 0.7-0.1v2.2c0 0-0.7 0.2-1.7 0.2-1.7 0-2.8-0.6-3-2.4-0.5 1.6-2 2.4-3.9 2.4-2.6 0-4.3-1.6-4.3-4 0-2.9 2.4-4.3 6.6-4.3 0.8 0 1.3 0 1.3 0 0-1.1 0-1.7-0.4-2.2-0.4-0.6-1-0.9-2.4-0.9-1.9 0-3.6 0.7-3.6 0.7h-0.2v-2.5zm3.9 10.8c0.9 0 1.8-0.4 2.3-1.3 0.4-0.8 0.4-1.8 0.4-2.3v-0.3h-0.7c-1.4 0-3.8 0-3.8 2.1-0.1 1.1 0.6 1.8 1.8 1.8z"/>
	<path id="Layer" class="s0" d="m116.4 19.7l0.6 2.3c0.4-1.5 1.5-2.6 3.9-2.6 2.3 0 3.5 1 4.1 2.7q0.9-2.7 3.9-2.7c2.1 0 3.2 0.9 3.8 1.8 0.7 1.1 0.7 2.4 0.7 4v7.9h-3.2v-7.9c0-0.8 0-1.6-0.4-2.2-0.3-0.5-0.9-1-2-1-2.2 0-2.5 1.8-2.5 2.9v8.2h-3.2v-7.9c0-0.8 0-1.6-0.4-2.2-0.3-0.5-0.9-1-2-1-2.2 0-2.5 1.8-2.5 2.9v8.2h-3.2v-13.4z"/>
	<path id="Layer" fill-rule="evenodd" class="s0" d="m143 20.1c0 0 1.7-0.6 4.3-0.6 2 0 3.8 0.3 4.7 1.7 0.7 1 0.7 2.4 0.7 3.6v4.6c0 0.6 0 1.6 1.1 1.6 0.4 0 0.7-0.1 0.7-0.1v2.2c0 0-0.7 0.2-1.7 0.2-1.7 0-2.8-0.6-3-2.4-0.5 1.6-2 2.4-3.9 2.4-2.6 0-4.3-1.6-4.3-4 0-2.9 2.4-4.3 6.6-4.3 0.8 0 1.3 0 1.3 0 0-1.1 0-1.7-0.4-2.2-0.4-0.6-1-0.9-2.4-0.9-1.9 0-3.6 0.7-3.6 0.7h-0.2v-2.5zm3.8 10.8c0.9 0 1.8-0.4 2.3-1.3 0.4-0.8 0.4-1.8 0.4-2.3v-0.3h-0.7c-1.4 0-3.8 0-3.8 2.1 0 1.1 0.6 1.8 1.8 1.8z"/>
	<path id="Layer" class="s0" d="m159.1 19.7l0.6 2.3c0.4-1.6 1.7-2.6 4-2.6 2.1 0 3.2 0.8 3.9 1.8 0.8 1.1 0.8 2.4 0.8 4v7.9h-3.2v-7.9c0-0.8 0-1.6-0.4-2.2-0.4-0.6-1.1-1-2.1-1-2.4 0-2.7 1.8-2.7 2.9v8.2h-3.2v-13.4z"/>
	<path id="Layer" fill-rule="evenodd" class="s0" d="m183.5 14.1v19h-2.5l-0.6-2.2c-0.4 1.5-1.8 2.5-4 2.5-3.7 0-5.7-2.8-5.7-6.9 0-4.1 2-7.1 5.9-7.1 1.9 0 3.2 0.7 3.7 2.3v-7.6zm-9.4 12.3c0 2.7 0.9 4.5 3.1 4.5 2.2 0 3.1-1.9 3.1-4.6 0-2.7-0.8-4.4-3-4.4-2.2 0-3.2 1.9-3.2 4.5z"/>
	<path id="Layer" class="s0" d="m195.1 14.8l3.6 14.2 3.7-13.8h3.3l3.7 13.8 3.6-14.2h2.8l-5 18.3h-3.3l-3.7-13.9-3.8 13.9h-3.3l-5-18.3z"/>
	<path id="Layer" fill-rule="evenodd" class="s0" d="m222.4 33.5c-4.1 0-6.5-2.4-6.5-7 0-4.6 2.4-7.1 6.6-7.1 4.1 0 6.5 2.4 6.5 7 0 4.6-2.4 7.1-6.6 7.1zm3.2-7.1c0-3-1-4.7-3.1-4.7-2.2 0-3.1 1.9-3.1 4.7 0 3 1 4.7 3.1 4.7 2.2 0.1 3.1-1.8 3.1-4.7z"/>
	<path id="Layer" class="s0" d="m234.1 19.7l0.6 2.3c0.4-1.5 1.5-2.6 3.9-2.6 2.3 0 3.5 1 4.1 2.7q0.9-2.7 3.9-2.7c2.1 0 3.2 0.9 3.8 1.8 0.7 1.1 0.7 2.4 0.7 4v7.9h-3.2v-7.9c0-0.8 0-1.6-0.4-2.2-0.3-0.5-0.9-1-2-1-2.2 0-2.5 1.8-2.5 2.9v8.2h-3.2v-7.9c0-0.8 0-1.6-0.4-2.2-0.3-0.5-0.9-1-2-1-2.2 0-2.5 1.8-2.5 2.9v8.2h-3.2v-13.4z"/>
	<path id="Layer" fill-rule="evenodd" class="s0" d="m264.6 32.7c0 0-1.8 0.6-4.2 0.6-2.6 0-4.1-0.7-5.1-1.7q-1.8-1.8-1.8-5.1c0-4.4 2.2-7.1 6.2-7.1 2.2 0 3.8 0.8 4.8 2.3 0.9 1.5 0.9 3.5 0.9 5.6h-8.6c0 2.3 1.3 3.6 3.8 3.6 1.9 0 3.8-0.7 3.8-0.7h0.2zm-2.5-7.6c0-2.2-0.7-3.5-2.5-3.5-1.9 0-2.6 1.3-2.8 3.5z"/>
	<path id="Layer" class="s0" d="m270.6 19.7l0.6 2.3c0.4-1.6 1.7-2.6 4-2.6 2.1 0 3.2 0.8 3.9 1.8 0.8 1.1 0.8 2.4 0.8 4v7.9h-3.2v-7.9c0-0.8 0-1.6-0.4-2.2-0.4-0.6-1.1-1-2.1-1-2.4 0-2.7 1.8-2.7 2.9v8.2h-3.2v-13.4z"/>
	<path id="Layer" class="s0" d="m282.3 20.7l1-6.5h3l-1.8 6.5z"/>
	<path id="Layer" class="s0" d="m295.9 22.6h-0.2c0 0-1.7-0.7-3.2-0.7-1.4 0-2 0.5-2 1.2 0 2.1 6 1.5 6 6.1 0 2.8-2.3 4.1-5.5 4.1-2.3 0-3.8-0.6-3.8-0.6v-2.6h0.2c0 0 2 0.8 3.7 0.8 1.5 0 2.1-0.6 2.1-1.4 0-2.4-6-1.7-6-6.1 0-2.4 1.9-4 5.3-4 1.9 0 3.3 0.5 3.3 0.5v2.7z"/>
	<path id="Layer" class="s0" d="m308.8 14.8v7.5h8.1v-7.5h3.3v18.3h-3.3v-8.3h-8.1v8.3h-3.3v-18.3z"/>
	<path id="Layer" fill-rule="evenodd" class="s0" d="m329.5 33.5c-4.1 0-6.5-2.4-6.5-7 0-4.6 2.4-7.1 6.6-7.1 4.1 0 6.5 2.4 6.5 7 0 4.6-2.4 7.1-6.6 7.1zm3.2-7.1c0-3-1-4.7-3.1-4.7-2.2 0-3.1 1.9-3.1 4.7 0 3 1 4.7 3.1 4.7 2.2 0.1 3.1-1.8 3.1-4.7z"/>
	<path id="Layer" class="s0" d="m346.6 22.6h-0.2c0 0-1.7-0.7-3.2-0.7-1.4 0-2 0.5-2 1.2 0 2.1 6 1.5 6 6.1 0 2.8-2.3 4.1-5.5 4.1-2.3 0-3.8-0.6-3.8-0.6v-2.6h0.2c0 0 2 0.8 3.7 0.8 1.5 0 2.1-0.6 2.1-1.4 0-2.4-6-1.7-6-6.1 0-2.4 1.9-4 5.3-4 1.9 0 3.3 0.5 3.3 0.5v2.7z"/>
	<path id="Layer" fill-rule="evenodd" class="s0" d="m349.9 37.9v-18.2h2.5l0.6 2.2c0.4-1.5 1.8-2.5 4-2.5 3.7 0 5.7 2.8 5.7 6.9 0 4.1-2 7.1-5.9 7.1-1.9 0-3.2-0.7-3.7-2.3v6.8zm9.4-11.5c0-2.7-0.9-4.5-3.1-4.5-2.3 0-3.1 1.9-3.1 4.6 0 2.7 0.9 4.5 3.1 4.5 2.2 0 3.1-1.9 3.1-4.6z"/>
	<path id="Layer" class="s0" d="m368.8 15.9c0 1.1-0.8 1.9-1.9 1.9-1.1 0-1.9-0.8-1.9-1.9 0-1.1 0.8-1.9 1.9-1.9 1.2 0 1.9 0.9 1.9 1.9zm-0.3 3.8v2.2 11.2h-3.2v-13.4z"/>
	<path id="Layer" class="s0" d="m379.8 33c0 0-1 0.3-2.4 0.3-1.9 0-3.2-0.5-3.8-1.5-0.6-0.9-0.6-2-0.6-3.5v-6.1h-2.5v-2.3h2.4v-3.5l3.2-0.9v4.4h3.7v2.3h-3.7v6c0 0.9 0 1.5 0.3 2 0.3 0.5 0.8 0.6 1.4 0.6 0.9 0 1.8-0.3 1.8-0.3h0.2z"/>
	<path id="Layer" fill-rule="evenodd" class="s0" d="m382.7 20.1c0 0 1.7-0.6 4.3-0.6 2 0 3.8 0.3 4.7 1.7 0.7 1 0.7 2.4 0.7 3.6v4.6c0 0.6 0 1.6 1.1 1.6 0.4 0 0.7-0.1 0.7-0.1v2.2c0 0-0.7 0.2-1.7 0.2-1.7 0-2.8-0.6-3-2.4-0.5 1.6-2 2.4-3.9 2.4-2.6 0-4.3-1.6-4.3-4 0-2.9 2.4-4.3 6.6-4.3 0.8 0 1.3 0 1.3 0 0-1.1 0-1.7-0.4-2.2-0.4-0.6-1-0.9-2.4-0.9-1.9 0-3.6 0.7-3.6 0.7h-0.2v-2.5zm3.9 10.8c0.9 0 1.8-0.4 2.3-1.3 0.4-0.8 0.4-1.8 0.4-2.3v-0.3h-0.7c-1.4 0-3.8 0-3.8 2.1-0.1 1.1 0.6 1.8 1.8 1.8z"/>
	<path id="Layer" class="s0" d="m399.5 14.1v19h-3.2v-13.6-5.4z"/>
	<path id="Layer" class="s1" d="m3.8 20.1h-3.8v6.5 5.9h3.8z"/>
	<path id="Layer" class="s1" d="m8.2 20.1v6.5 5.9h3.9v-12.4z"/>
	<path id="Layer" class="s1" d="m16.5 20.1v6.5 5.9h3.8v-12.4z"/>
	<path id="Layer" class="s1" d="m0 17.7h14.3 14.3v-3.5h-28.6z"/>
	<path id="Layer" class="s1" d="m14.3 4.7l-14.3 4.7v3.7l14.3-4.8 14.3 4.8v-3.7z"/>
	<path id="Layer" class="s1" d="m28.6 32.2c-0.1 0.2-1.5 2.6-10.6 2.6h-7.4c-9.4 0.1-10.4 1.3-10.6 1.4v3.6c0.2-0.1 1.2-1.3 10.6-1.4h7.4c9.1 0 10.5-2.4 10.6-2.6z"/>
	<path id="Layer" class="s1" d="m28.6 38.1c-0.1 0.2-1.5 2.6-10.6 2.6h-7.4c-9.4 0.1-10.4 1.3-10.6 1.4v3.6c0.2-0.1 1.2-1.3 10.6-1.4h7.4c9.1 0 10.5-2.4 10.6-2.6z"/>
	<path id="Layer" class="s1" d="m24.7 20.1v11.8c3.1-0.7 3.8-1.8 3.8-2v-9.8z"/>
</svg>