<svg width="1307" height="1318" viewBox="0 0 1307 1318" fill="none" xmlns="http://www.w3.org/2000/svg">
<path d="M669.333 2.33343C608.133 10.2001 550 35.5334 503.067 74.6001C495.867 80.6001 396.667 179 282.533 293.267C67.4667 508.733 67.6 508.6 48.6667 538.467C39.4667 552.867 26 580.467 19.6 597.667C-4.66666 663.667 -6.26666 740.067 15.4667 807.4C42.4 890.733 101.2 958.867 179.333 997C203.2 1008.73 219.333 1014.87 240.8 1020.2C319.867 1040.07 398.133 1031.4 469.067 995C491.6 983.4 497.733 979.4 496.667 976.6C494.8 972.067 494.267 914.333 495.867 896.867C504.8 798.2 545.467 707.933 612.133 638.6L625.2 625L490.267 490.067L355.333 355L451.333 258.867C504.133 205.933 552.4 158.2 558.667 152.733C626.8 92.4668 724.533 78.6001 806.4 117.667C870.4 148.2 915.467 205.8 930.933 276.733C933.6 288.6 933.867 294.2 933.867 321.667C933.867 349.267 933.6 354.733 930.933 367C924 399.133 909.6 431.267 890.933 456.333C885.2 464.067 870.933 480.2 859.2 492.2C839.333 512.6 838.267 514.067 842.667 513.267C875.333 507.133 913.6 504.867 946.667 507L971.333 508.467L973.733 505.533C985.067 491.533 1004.8 452.467 1013.73 426.333C1026.67 388.467 1031.33 356.867 1030.27 313.667C1029.6 281.8 1026.93 263.667 1019.33 235.8C995.333 148.333 932.8 72.8668 851.333 33.0001C821.867 18.6001 796 10.3334 762 4.2001C741.467 0.600096 690.8 -0.466571 669.333 2.33343Z" fill="#013B96"/>
<path d="M893.333 547.8C809.2 555.133 733.867 585.933 672 638.333C654.667 653.133 627.2 682.067 613.867 699.8C570.933 756.733 546.133 819.267 537.867 891C535.2 914.2 535.867 965 539.2 986.333C545.467 1027.93 555.867 1062.33 573.333 1098.73C586.267 1125.4 604.4 1154.87 617.2 1169.67L621.2 1174.33L891.867 903.667C1107.73 687.933 1162.27 632.733 1161.07 631.267C1158.27 628.067 1132.93 610.2 1119.33 602.067C1074.13 574.867 1024.8 557.667 972 550.333C957.467 548.333 906.133 546.733 893.333 547.8Z" fill="#013B96"/>
<path d="M950.267 961.4C801.6 1110.07 680 1232.07 680 1232.73C680 1233.27 685.6 1237.8 692.4 1242.73C748.133 1283.93 814.667 1309.4 883.867 1316.33C904.267 1318.33 944.667 1317.93 965.333 1315.53C1083.73 1301.93 1189.87 1233.53 1251.33 1131.53C1331.47 998.467 1323.87 829.933 1231.87 704.867C1226.93 698.067 1222.4 692.333 1221.73 691.933C1221.07 691.533 1098.93 812.733 950.267 961.4Z" fill="#013B96"/>
</svg>
